# xmcd
#
# Track frame offsets:
#	150
#	20278
#	38283
#	55676
#	74663
#	100430
#	103596
#	113698
#	124236
#	132478
#	150656
#	167611
#	181552
#	199449
#
# Disc length: 4314 seconds
#
# Revision: 0
# Processed by: cddbd v1.5.2PL0 Copyright (c) Steve Scherf et al.
# Submitted via: dBpowerAMP V4.0
#
DISCID=b710d80e
DTITLE=Greg Zlap - Road Movie(s)
DYEAR=2008
DGENRE=Blues
TTITLE0=01 Wedding Theme (Opening)
TTITLE1=02 Who's Gonna Take Me Damm' Soul
TTITLE2=03 Paris, Texas
TTITLE3=04 Sleepless Night ! Calling You
TTITLE4=05 The Right Spot
TTITLE5=06 Knocking On Devil's Door
TTITLE6=07 Mo' Better Blues
TTITLE7=08 Moon River
TTITLE8=09 The Harmonica, The Devil and The Chaplin Piano
TTITLE9=10 Ascenseur Pour l'Échafeau ! Night Road
TTITLE10=11 Now i Am The Blues
TTITLE11=12 Long Way Home
TTITLE12=13 Wedding Theme (Closing)
TTITLE13=DATA
EXTD=
EXTT0=
EXTT1=
EXTT2=
EXTT3=
EXTT4=
EXTT5=
EXTT6=
EXTT7=
EXTT8=
EXTT9=
EXTT10=
EXTT11=
EXTT12=
EXTT13=
PLAYORDER=
